HIERARCHY
ROOT Spine
{
    OFFSET 0.0 0.0 -0.0
    CHANNELS 6 Xposition Yposition Zposition Zrotation Xrotation Yrotation
    JOINT ShoulderCenter
    {
        OFFSET 0.0 0.2316848188638687 0.0
        CHANNELS 3 Zrotation Xrotation Yrotation
        JOINT LeftShoulder
        {
            OFFSET 0.17892798781394958 0.0 0.0
            CHANNELS 3 Zrotation Xrotation Yrotation
            JOINT LeftElbow
            {
                OFFSET 0.2516559362411499 0.0 0.0
                CHANNELS 3 Zrotation Xrotation Yrotation
                JOINT LeftHand
                {
                    OFFSET 0.283211886882782 0.0 0.0
                    CHANNELS 3 Zrotation Xrotation Yrotation
                    End Site
                    {
                        OFFSET 0.11328474432229996 0.0 0.0
                    }
                }
            }
        }
        JOINT RightShoulder
        {
            OFFSET -0.17892798781394958 0.0 0.0
            CHANNELS 3 Zrotation Xrotation Yrotation
            JOINT RightElbow
            {
                OFFSET -0.2516559362411499 0.0 0.0
                CHANNELS 3 Zrotation Xrotation Yrotation
                JOINT RightHand
                {
                    OFFSET -0.283211886882782 0.0 0.0
                    CHANNELS 3 Zrotation Xrotation Yrotation
                    End Site
                    {
                        OFFSET -0.11328474432229996 0.0 0.0
                    }
                }
            }
        }
        End Site
        {
            OFFSET 0.0 0.09267392754554749 0.0
        }
    }
    JOINT LeftHip
    {
        OFFSET 0.2247714401118417 -0.2247714401118417 0.0
        CHANNELS 3 Zrotation Xrotation Yrotation
        JOINT LeftKnee
        {
            OFFSET 0.0 -0.37568897008895874 0.0
            CHANNELS 3 Zrotation Xrotation Yrotation
            JOINT LeftFoot
            {
                OFFSET 0.0 -0.44910937547683716 0.0
                CHANNELS 3 Zrotation Xrotation Yrotation
                End Site
                {
                    OFFSET 0.0 0.0 0.17964375019073486
                }
            }
        }
    }
    JOINT RightHip
    {
        OFFSET -0.2247714401118417 -0.2247714401118417 0.0
        CHANNELS 3 Zrotation Xrotation Yrotation
        JOINT RightKnee
        {
            OFFSET 0.0 -0.37568897008895874 0.0
            CHANNELS 3 Zrotation Xrotation Yrotation
            JOINT RightFoot
            {
                OFFSET 0.0 -0.44910937547683716 0.0
                CHANNELS 3 Zrotation Xrotation Yrotation
                End Site
                {
                    OFFSET 0.0 0.0 0.17964375019073486
                }
            }
        }
    }
}
MOTION
Frames: 10
Frame Time: 0.03333333333333333
-0.270236998796463 0.3403584957122803 3.4522249698638916 -8.091926404765168 -11.93596183403486 -144.97032996550774 6.316771791378237e-07 5.007415304543076e-07 -4.838534591893713 75.0406956801478 -15.952190522116426 -147.20318457481625 1.343221986371825e-06 -2.207338887083831e-06 67.06570567462092 -3.1805546814635168e-15 0.0 0.0 -120.56992983314333 -11.806562573441163 117.52379663075034 2.504324275057475e-06 2.054521712271356e-06 -125.75728102078142 -9.54166404439055e-15 -6.3611093629270335e-15 3.180554681463516e-15 -3.3496330377855563 7.393222713200868 -45.72227461571432 -11.788779639394141 -5.6343505495153705 9.478652494681253 6.460501696722768e-16 -1.1207183959892982e-33 -1.9878466759146977e-16 -17.874616503363917 -2.8155828357257526 48.764511669915755 4.239190236733369 -6.522521985644008 -35.30179241243078 0.0 0.0 -2.8575295966273784e-15
-0.2698768973350525 0.3420880138874054 3.4522221088409424 -7.9610480902820795 -11.838656568990494 -146.67888887065084 5.322031291803209e-07 -9.166488327725606e-08 -3.2083235412261524 89.29601244126705 -24.317106158894337 -162.25836063994797 -5.210797216072903e-07 1.0258937090567922e-06 74.51021517367434 -6.3611093629270335e-15 3.531125038440127e-31 -6.3611093629270335e-15 -119.70107822375866 -11.547174171211868 114.05709183263086 -4.044444058312655e-07 -4.28549704021291e-07 -123.1912520975883 7.951386703658792e-15 -2.2069531490250793e-31 -3.1805546814635168e-15 -3.3107018746122714 7.382071368835466 -46.08932698881862 -11.852746351433801 -5.2936663285495165 8.89051810507616 3.571911995784223e-16 -1.5902773407317584e-15 -1.987846675914698e-16 -17.60023040254924 -3.8168857276997246 41.34238917532164 5.558489056980593 -5.3823699432906835 -28.651559995696406 0.0 0.0 6.833222948456774e-17
-0.2696402966976166 0.34230831265449524 3.452080011367798 -7.791670818021148 -11.737274145643205 -146.24242320060887 4.2837456130233485e-07 -3.480906684377692e-09 -3.9437055914960975 87.34195504952916 -22.96749022505222 -162.496196858205 4.022850315112636e-06 -4.70523186079365e-06 73.67073916056094 0.0 -6.3611093629270335e-15 0.0 -119.33897671299528 -10.993184120218025 112.27995084978497 -1.7876402366343649e-06 -3.0800795232437154e-06 -121.50308334774799 -9.54166404439055e-15 3.1805546814635168e-15 2.648343778830095e-31 -2.663827137480764 7.231479845761459 -47.80108975133868 -10.695900545158095 -6.010084645675304 10.84499386942132 -4.3484146035634007e-16 -1.5902773407317582e-15 -6.034637516865451e-33 -16.60746294128571 -3.668098092806468 29.63816219924016 5.757684325299712 -3.7590182372249483 -17.787072285497096 2.981770013872048e-16 -6.0615778629228865e-33 -2.329507823337537e-15
-0.26926881074905396 0.34436941146850586 3.451975107192993 -7.853394134862289 -11.793794632069572 -146.49308764981524 -1.313461226994193e-07 -2.4837643365406247e-07 -3.7424982711795636 89.17772999016202 -25.2847252590565 -162.55115598062918 -4.7325114740942645e-06 1.5332463622519756e-06 75.748383494677 0.0 -6.3611093629270335e-15 0.0 -120.0087865534716 -9.11108949325353 110.3659047197403 -3.663002747255991e-06 3.0737247359447724e-06 -119.99407054386117 0.0 0.0 6.361109362927035e-15 -2.9705994469468022 7.183014455570048 -47.25835437930071 -12.224295194868374 -6.586783605778991 11.120554430978062 2.3108717607508363e-15 0.0 0.0 -16.840992298967155 -3.849281332986591 30.348429818917133 5.972011436821868 -3.815213610030211 -18.469674783975165 -4.969616689786744e-16 3.9756933518293955e-16 -6.957463365701442e-16
-0.2680405080318451 0.3454431891441345 3.4518229961395264 -7.664742108619854 -11.567326167676848 -150.96333289731783 -2.102896211617637e-07 7.124954638355202e-07 0.7050702477820279 89.09418235504675 -24.5167032765896 -162.358478439669 -5.157032577169583e-07 -2.5194343544666193e-06 75.54565871846447 -1.2722218725854065e-14 0.0 0.0 -121.56747971103474 -3.4450647466320006 101.1514602862507 1.7409866724399424e-06 -5.570250165228492e-06 -115.06768537256542 1.5902773407317584e-15 -3.1805546814635168e-15 3.1805546814635168e-15 -2.0031720328549003 7.974350472218429 -54.35838368611559 -11.055673558550113 -10.038329186977121 17.350795429573676 -2.1866313435061676e-15 1.517280289954742e-32 -7.951386703658792e-16 -16.137782197516994 -5.85826740335928 16.160965170069392 6.939069840590817 -1.1032901804511395 -5.4248532967078935 -3.975693351829396e-16 2.0690185772110117e-32 -5.9635400277440935e-15
-0.2673588991165161 0.3428089916706085 3.4530599117279053 -7.4893440143289505 -11.612280134905744 -153.08830749908864 1.7527196991975544e-07 -2.5506011389775906e-08 2.8998471886382893 89.15964441539963 -23.98448664276979 -162.23746677634713 4.006978843876452e-06 -5.245412885259829e-06 75.40825637395187 0.0 0.0 0.0 -125.09778192134472 -11.667113639560727 102.33582049271438 -1.1075706692241228e-06 1.5298720755722497e-06 -114.81185619973552 1.5902773407317584e-15 3.1805546814635168e-15 -3.1805546814635168e-15 -2.4006966256268067 8.209808573143485 -52.66648719081047 -10.6730136038523 -10.71391069942067 18.509932613885518 6.460501696722769e-16 -1.1207183959892982e-33 -1.987846675914698e-16 -16.47022091841692 -7.734348086577442 -20.947034256857293 6.388926956151782 4.798005488240632 27.308376390259312 -7.607953726619657e-33 3.975693351829396e-16 2.192843364368401e-15
-0.27129751443862915 0.33512699604034424 3.4557290077209473 -7.772109961163528 -11.786429550461603 -154.71670476760158 -1.3290795409593887e-06 2.1555042160604648e-07 4.334270753172496 88.58232212975679 -24.287629851552154 -162.68164847399214 -3.078116950154556e-06 6.053301041126934e-07 76.11205348862065 -1.2722218725854067e-14 0.0 0.0 -125.51061122240849 -11.37158112901117 102.88958889596931 -1.533907516003792e-07 1.9854878624183687e-06 -116.37904629695056 -1.5902773407317584e-15 8.827812596100317e-32 -6.3611093629270335e-15 -4.301716795311635 8.807940741909938 -48.03442271405325 -9.706509774368003 -9.769549503709635 16.37068671369128 3.9756933518293955e-16 0.0 0.0 -17.77992401641448 -8.825293780951737 -63.07225180227038 0.9151615501011895 9.528561875100502 70.91101848981141 0.0 0.0 3.9756933518293955e-16
-0.26956310868263245 0.3325861990451813 3.454585075378418 -7.286106357023075 -11.501738470114779 -155.9867194340215 -7.728952798287714e-08 -9.822837370704635e-07 5.719108615605686 89.19491961551037 -24.574151738230636 -162.7869269370634 1.9191282778496197e-06 -1.0299697704060734e-06 76.04228998138912 0.0 6.3611093629270335e-15 0.0 -121.27219992001613 -10.288540729900296 105.68569183274046 5.7022990571241385e-06 -1.755649981245002e-06 -114.91918485802702 7.951386703658792e-15 -2.2069531490250793e-31 -3.1805546814635168e-15 -2.733690408340299 9.401908456963396 -53.63366626014424 -8.290807219029846 -11.636275629398988 20.8776129819163 -5.466578358765419e-16 1.5902773407317584e-15 1.987846675914698e-16 -16.182482068182875 -9.487275140109025 -45.51857039907412 2.808743560394148 8.5398803189931 52.32843166580452 -9.93923337957349e-17 -3.975693351829396e-16 -1.0560435465796834e-15
-0.2701241970062256 0.3307642936706543 3.4548490047454834 -7.216084556896111 -11.465906729561537 -155.59440087188867 -3.4536099801770223e-07 2.2782062041787837e-07 5.29619095849507 89.2186172157724 -23.342348246152646 -163.3023926111452 -6.966772324990953e-06 1.322618569598566e-06 77.87657062678507 -6.3611093629270335e-15 0.0 0.0 -121.48425760772977 -9.011096883676926 109.23709126570688 -2.613630885976251e-06 8.298607426224744e-07 -116.34294501275181 -3.1805546814635176e-15 -8.827812596100317e-32 3.1805546814635176e-15 -2.713705769949025 9.460409643825923 -53.36229119665128 -8.84676529075941 -11.604610430557141 20.302648794314035 5.963540027744093e-16 -2.069018577211012e-33 -3.9756933518293955e-16 -16.265437990796183 -9.28720929217877 -44.162780570797494 3.216857503758798 8.457538280059017 51.014923295222424 0.0 0.0 2.248751552128502e-15
-0.27019399404525757 0.33042028546333313 3.4554970264434814 -7.0850774133500405 -11.4362704809848 -155.1868155420782 -1.109664010994138e-06 -5.47961926163683e-07 4.933964277172422 89.3903159501281 -24.68174177337314 -163.95031279954088 3.6723687779382668e-06 -2.965055257559894e-06 77.40785610876767 0.0 0.0 0.0 -122.75991107924614 -6.951808570131478 110.27266373372552 -3.1386937130850537e-07 -2.380822874362572e-06 -119.40322139573856 -2.3854160110976376e-15 -3.1805546814635168e-15 6.3611093629270335e-15 -2.699055745846493 9.348127580982938 -52.83150728875703 -0.6950616753954846 -17.795400403662978 39.53154903818885 -9.93923337957349e-17 7.951386703658792e-16 -5.963540027744094e-16 -16.195234331531914 -9.241326306070706 -43.5521802817321 3.3641148250350974 8.400971210362469 50.03425456484682 -3.2587042591073436e-32 3.975693351829396e-16 9.392575543696948e-15
